<?xml version="1.0"?>
<!DOCTYPE svg PUBLIC "-//W3C//DTD SVG 1.1//EN"
    "http://www.w3.org/Graphics/SVG/1.1/DTD/svg11.dtd">
<svg version="1.1" xmlns="http://www.w3.org/2000/svg"
    xmlns:xlink="http://www.w3.org/1999/xlink"
    width="840px" height="600px"
    viewBox="0 0 14 10"
    preserveAspectRatio="xMidYMid">

<defs>
    <g id = "octagon">
        <animateTransform attributeName = "transform" type = "rotate"
            from = "0" to = "360" dur="7s"
            repeatCount="indefinite" fill = "freeze" />
        <path d="M 
                    -0.32,                  0.7725483399593904,
                    0.32,                   0.7725483399593904,
                    0.7725483399593904,     0.32,
                    0.7725483399593904,    -0.32,
                    0.32,                  -0.7725483399593904,
                -0.32,                  -0.7725483399593904,
                -0.7725483399593904,    -0.32,
                -0.7725483399593904,     0.32 
                Z
                M  -0.32,                   0.7725483399593904,
                L   0,0
                M   0.32,                   0.7725483399593904,
                L   0,0
                M   0.7725483399593904,     0.32,
                L   0,0
                M   0.7725483399593904,    -0.32,
                L   0,0
                M   0.32,                  -0.7725483399593904,
                L   0,0
                M  -0.32,                  -0.7725483399593904,
                L   0,0
                M  -0.7725483399593904,    -0.32,
                L   0,0
                M  -0.7725483399593904,     0.32,
                L   0,0"
                fill="none" stroke="black" stroke-width="0.05"/>
    </g>
    <g id = "windmil" transform = "translate (7,4)">
        <use xlink:href = "#octagon" transform = "translate(-1.85,0.62)" />
        <use xlink:href = "#octagon" transform = "translate(1.85,1.42)" />
        <rect x="-1.8" y="0.9" width="4" height="0.2" transform="rotate(12)" fill="red"/>
        <polygon points="-0.5,3.5 0,1 0.5,3.5"/>
    </g>
</defs>
    <use xlink:href = "#windmil" fill="blue" transform = "translate(-1,-0.6) scale(1.2,1.2)" />
    <use xlink:href = "#windmil" fill="purple" transform = "translate(-3.6,-2) scale(0.9,0.9)" />
    <use xlink:href = "#windmil" fill="green" transform = "translate(5,-1.5) scale(0.7,0.7)" />
</svg>